<?xml version="1.0" encoding="utf-8"?>
<!-- Generator: Adobe Illustrator 24.0.2, SVG Export Plug-In . SVG Version: 6.00 Build 0)  -->
<svg version="1.1" id="Layer_1" xmlns="http://www.w3.org/2000/svg" xmlns:xlink="http://www.w3.org/1999/xlink" x="0px" y="0px"
	 viewBox="0 0 60 40" style="enable-background:new 0 0 60 40;" xml:space="preserve">
<style type="text/css">
	.st0{fill:#2A2A2A;}
</style>
<title>Connect</title>
<desc>Created with Sketch.</desc>
<g>
	<g>
		<g>
			<path class="st0" d="M30,10.5c0.5-0.2,0.9-0.4,1.3-0.5c3.2-1.3,7.5-2.6,11.6-3.3C39.2,3.1,34.5,0.9,30,0.9s-9.2,2.2-12.9,5.8
				c4.1,0.7,8.4,2,11.6,3.3C29.1,10.2,29.5,10.4,30,10.5z"/>
			<path class="st0" d="M28.6,11.3C28.6,11.3,28.6,11.3,28.6,11.3C28.6,11.3,28.6,11.3,28.6,11.3c-0.2-0.1-0.4-0.2-0.6-0.2
				c0,0,0,0,0,0c-0.2-0.1-0.4-0.1-0.5-0.2c0,0,0,0-0.1,0c0,0,0,0,0,0c-0.2-0.1-0.4-0.1-0.6-0.2c0,0,0,0,0,0c0,0-0.1,0-0.1,0
				c-0.2-0.1-0.4-0.1-0.5-0.2c0,0,0,0-0.1,0c-0.2-0.1-0.4-0.1-0.6-0.2c0,0,0,0-0.1,0c0,0,0,0,0,0c-0.4-0.1-0.9-0.3-1.3-0.4
				c0,0,0,0-0.1,0c0,0,0,0,0,0c-0.2-0.1-0.4-0.1-0.7-0.2c0,0,0,0,0,0c0,0,0,0,0,0c-0.5-0.1-0.9-0.3-1.4-0.4c0,0,0,0,0,0c0,0,0,0,0,0
				c-0.5-0.1-1-0.3-1.5-0.4c0,0,0,0,0,0c-0.3-0.1-0.5-0.1-0.8-0.2l0,0c0,0,0,0,0,0C19,8.3,18.5,8.2,18,8c0,0,0,0,0,0c0,0,0,0,0,0
				c-0.5-0.1-1-0.2-1.5-0.3c-3.2,3.1-5.7,7.2-6.8,11.8l0,0.2c1.5,0.1,2.9-0.8,3.4-1c5.6-3.1,12.4-6.6,16.4-7.2c0,0,0,0,0,0
				C29.1,11.5,28.8,11.4,28.6,11.3z"/>
			<g>
				<path class="st0" d="M8.5,19.2c1.1-4.6,3.5-8.7,6.7-11.8C9,6.3,3.3,6.4,2.2,9.5c-0.8,2.2,0.9,5.5,3.7,8.7
					c0.8,0.9,1.7,1.4,2.6,1.5c0,0,0-0.1,0-0.2C8.5,19.3,8.5,19.2,8.5,19.2z"/>
			</g>
		</g>
		<path class="st0" d="M31.4,11.3C31.4,11.3,31.4,11.3,31.4,11.3C31.4,11.3,31.4,11.3,31.4,11.3c0.2-0.1,0.4-0.2,0.6-0.2
			c0,0,0,0,0,0c0.2-0.1,0.4-0.1,0.5-0.2c0,0,0,0,0.1,0c0,0,0,0,0,0c0.2-0.1,0.4-0.1,0.6-0.2c0,0,0,0,0,0c0,0,0.1,0,0.1,0
			c0.2-0.1,0.4-0.1,0.5-0.2c0,0,0,0,0.1,0c0.2-0.1,0.4-0.1,0.6-0.2c0,0,0,0,0.1,0c0,0,0,0,0,0c0.4-0.1,0.9-0.3,1.3-0.4
			c0,0,0,0,0.1,0c0,0,0,0,0,0c0.2-0.1,0.4-0.1,0.7-0.2c0,0,0,0,0,0c0,0,0,0,0,0c0.5-0.1,0.9-0.3,1.4-0.4c0,0,0,0,0,0c0,0,0,0,0,0
			c0.5-0.1,1-0.3,1.5-0.4c0,0,0,0,0,0c0.3-0.1,0.5-0.1,0.8-0.2l0,0c0,0,0,0,0,0C41,8.3,41.5,8.2,42,8c0,0,0,0,0,0c0,0,0,0,0,0
			c0.5-0.1,1-0.2,1.5-0.3c3.2,3.1,5.7,7.2,6.8,11.8l0,0.2c-1.5,0.1-2.9-0.8-3.4-1c-5.6-3.1-12.4-6.6-16.4-7.2c0,0,0,0,0,0
			C30.9,11.5,31.2,11.4,31.4,11.3z"/>
		<g>
			<path class="st0" d="M51.5,19.2c-1.1-4.6-3.5-8.7-6.7-11.8c6.2-1.1,11.9-1,13,2.1c0.8,2.2-0.9,5.5-3.7,8.7
				c-0.8,0.9-1.7,1.4-2.6,1.5c0,0,0-0.1,0-0.2C51.5,19.3,51.5,19.2,51.5,19.2z"/>
		</g>
	</g>
</g>
<g>
	<path d="M6.7,31.5c-0.7-0.4-1-1-1-1.7v-5.3c0-0.7,0.4-1.3,1-1.7c0.7-0.4,1.6-0.6,2.8-0.6s2.1,0.2,2.8,0.6c0.7,0.4,1.1,1,1.1,1.7
		v0.6c0,0.1-0.1,0.1-0.2,0.1H12c-0.2,0-0.2,0-0.2-0.1v-0.6c0-0.4-0.2-0.8-0.6-1.1c-0.4-0.3-1-0.4-1.6-0.4c-0.7,0-1.2,0.1-1.6,0.4
		c-0.4,0.3-0.6,0.6-0.6,1v5.4c0,0.4,0.2,0.8,0.6,1c0.4,0.3,1,0.4,1.6,0.4c0.7,0,1.2-0.1,1.6-0.4c0.4-0.3,0.6-0.6,0.6-1.1V28
		c0,0,0-0.1-0.1-0.1h-2c-0.2,0-0.2,0-0.2-0.1v-0.6c0-0.1,0.1-0.1,0.2-0.1h3.4c0.2,0,0.2,0,0.2,0.1v2.6c0,0.7-0.4,1.3-1.1,1.7
		c-0.7,0.4-1.6,0.6-2.8,0.6S7.4,31.9,6.7,31.5z"/>
	<path d="M22.4,31.9l-2.3-4.3c0,0,0,0-0.1,0h-2c-0.1,0-0.1,0-0.1,0.1v4.3c0,0.1-0.1,0.1-0.2,0.1h-1.2c-0.2,0-0.2,0-0.2-0.1v-9.5
		c0-0.1,0.1-0.1,0.2-0.1h3.8c1.1,0,2,0.3,2.7,0.7s1,1.2,1,2c0,0.6-0.2,1.1-0.6,1.6c-0.4,0.4-1,0.7-1.7,0.9c-0.1,0-0.1,0-0.1,0.1
		l2.5,4.4l0,0.1c0,0.1-0.1,0.1-0.2,0.1h-1.2C22.6,32,22.5,32,22.4,31.9z M17.9,23.1v3.5c0,0,0,0.1,0.1,0.1h2.1
		c0.7,0,1.3-0.2,1.7-0.5c0.4-0.3,0.6-0.8,0.6-1.3s-0.2-1-0.6-1.3c-0.4-0.3-1-0.5-1.7-0.5L17.9,23.1C18,23.1,17.9,23.1,17.9,23.1z"/>
	<path d="M27.1,31.5c-0.7-0.4-1.1-1-1.1-1.8v-5.1c0-0.7,0.4-1.3,1.1-1.8s1.7-0.7,2.8-0.7c1.2,0,2.1,0.2,2.9,0.7s1.1,1,1.1,1.8v5.1
		c0,0.7-0.4,1.3-1.1,1.8c-0.7,0.5-1.7,0.7-2.9,0.7C28.8,32.1,27.8,31.9,27.1,31.5z M31.7,30.8c0.4-0.3,0.6-0.7,0.6-1.1v-5.2
		c0-0.5-0.2-0.8-0.6-1.1c-0.4-0.3-1-0.4-1.7-0.4c-0.7,0-1.2,0.1-1.7,0.4c-0.4,0.3-0.6,0.7-0.6,1.1v5.2c0,0.4,0.2,0.8,0.6,1.1
		c0.4,0.3,1,0.4,1.7,0.4C30.7,31.3,31.2,31.1,31.7,30.8z"/>
	<path d="M37.8,31.4c-0.7-0.5-1.1-1.1-1.1-2v-7.1c0-0.1,0.1-0.1,0.2-0.1h1.2c0.2,0,0.2,0,0.2,0.1v7.2c0,0.5,0.2,0.9,0.6,1.2
		c0.4,0.3,1,0.5,1.7,0.5c0.7,0,1.3-0.2,1.7-0.5c0.4-0.3,0.6-0.7,0.6-1.2v-7.2c0-0.1,0.1-0.1,0.2-0.1h1.2c0.2,0,0.2,0,0.2,0.1v7.1
		c0,0.8-0.4,1.5-1.1,2s-1.7,0.7-2.9,0.7C39.4,32.1,38.5,31.9,37.8,31.4z"/>
	<path d="M54,22.9c0.7,0.5,1,1.2,1,2c0,0.8-0.3,1.4-1,1.9c-0.7,0.5-1.6,0.7-2.6,0.7h-2.4c-0.1,0-0.1,0-0.1,0.1v4.2
		c0,0.1-0.1,0.1-0.2,0.1h-1.2c-0.2,0-0.2,0-0.2-0.1v-9.5c0-0.1,0.1-0.1,0.2-0.1h3.8C52.5,22.2,53.4,22.4,54,22.9z M52.8,26.3
		c0.4-0.3,0.6-0.8,0.6-1.3s-0.2-1-0.6-1.4s-1-0.5-1.7-0.5h-2.1c-0.1,0-0.1,0-0.1,0.1v3.6c0,0,0,0.1,0.1,0.1h2.1
		C51.8,26.8,52.4,26.6,52.8,26.3z"/>
</g>
<g>
	<path d="M18.4,34h0.5C19,34,19,34,19,34v4.1c0,0,0,0.1-0.1,0.1h-0.5c-0.1,0-0.1,0-0.1-0.1v-3.2c0,0,0,0,0,0s0,0,0,0l-1,1.3
		c0,0-0.1,0-0.1,0c-0.1,0-0.1,0-0.1,0l-1-1.3c0,0,0,0,0,0s0,0,0,0v3.2c0,0,0,0.1-0.1,0.1h-0.5c-0.1,0-0.1,0-0.1-0.1V34
		c0,0,0-0.1,0.1-0.1h0.5c0.1,0,0.1,0,0.1,0l1.1,1.4c0,0,0,0,0,0c0,0,0,0,0,0l1.1-1.4C18.3,34,18.3,34,18.4,34z"/>
	<path d="M22.9,38.1l-0.2-0.7c0,0,0,0,0,0c0,0,0,0,0,0h-1.8c0,0,0,0,0,0c0,0,0,0,0,0l-0.2,0.7c0,0,0,0.1-0.1,0.1h-0.5
		c0,0-0.1,0-0.1,0c0,0,0,0,0,0l1.5-4.1c0,0,0-0.1,0.1-0.1H22c0.1,0,0.1,0,0.1,0.1l1.5,4.1v0c0,0,0,0.1-0.1,0.1H23
		C22.9,38.2,22.9,38.1,22.9,38.1z M20.9,37h1.5c0,0,0,0,0,0l-0.8-2.4c0,0,0,0,0,0s0,0,0,0L20.9,37C20.9,37,20.9,37,20.9,37z"/>
	<path d="M27.2,34h0.5c0.1,0,0.1,0,0.1,0.1v4.1c0,0,0,0.1-0.1,0.1h-0.6c-0.1,0-0.1,0-0.1,0L25.1,35c0,0,0,0,0,0s0,0,0,0l0,3.1
		c0,0,0,0.1-0.1,0.1h-0.5c-0.1,0-0.1,0-0.1-0.1V34c0,0,0-0.1,0.1-0.1h0.6c0.1,0,0.1,0,0.1,0l1.9,3.1c0,0,0,0,0,0s0,0,0,0L27.2,34
		C27.1,34,27.2,34,27.2,34z"/>
	<path d="M31.7,38.1l-0.2-0.7c0,0,0,0,0,0c0,0,0,0,0,0h-1.8c0,0,0,0,0,0c0,0,0,0,0,0l-0.2,0.7c0,0,0,0.1-0.1,0.1h-0.5
		c0,0-0.1,0-0.1,0c0,0,0,0,0,0l1.5-4.1c0,0,0-0.1,0.1-0.1h0.6c0.1,0,0.1,0,0.1,0.1l1.5,4.1v0c0,0,0,0.1-0.1,0.1h-0.5
		C31.8,38.2,31.7,38.1,31.7,38.1z M29.7,37h1.5c0,0,0,0,0,0l-0.8-2.4c0,0,0,0,0,0s0,0,0,0L29.7,37C29.7,37,29.7,37,29.7,37z"/>
	<path d="M33.4,37.9c-0.3-0.2-0.5-0.4-0.5-0.7v-2.3c0-0.3,0.2-0.5,0.5-0.7s0.7-0.3,1.2-0.3c0.5,0,0.9,0.1,1.2,0.3
		c0.3,0.2,0.5,0.4,0.5,0.7v0.3c0,0,0,0.1-0.1,0.1h-0.5c-0.1,0-0.1,0-0.1-0.1v-0.3c0-0.2-0.1-0.3-0.3-0.5c-0.2-0.1-0.4-0.2-0.7-0.2
		c-0.3,0-0.5,0.1-0.7,0.2c-0.2,0.1-0.3,0.3-0.3,0.5v2.3c0,0.2,0.1,0.3,0.3,0.5c0.2,0.1,0.4,0.2,0.7,0.2c0.3,0,0.5-0.1,0.7-0.2
		c0.2-0.1,0.3-0.3,0.3-0.5v-0.8c0,0,0,0,0,0h-0.8c-0.1,0-0.1,0-0.1-0.1v-0.3c0,0,0-0.1,0.1-0.1h1.5c0.1,0,0.1,0,0.1,0.1v1.1
		c0,0.3-0.2,0.5-0.5,0.7c-0.3,0.2-0.7,0.3-1.2,0.3C34.1,38.2,33.7,38.1,33.4,37.9z"/>
	<path d="M40.5,34.3h-2.3c0,0,0,0,0,0v1.5c0,0,0,0,0,0h1.4c0.1,0,0.1,0,0.1,0.1v0.3c0,0,0,0.1-0.1,0.1h-1.4c0,0,0,0,0,0v1.5
		c0,0,0,0,0,0h2.3c0.1,0,0.1,0,0.1,0.1v0.3c0,0,0,0.1-0.1,0.1h-2.9c-0.1,0-0.1,0-0.1-0.1V34c0,0,0-0.1,0.1-0.1h2.9
		c0.1,0,0.1,0,0.1,0.1L40.5,34.3C40.6,34.3,40.6,34.3,40.5,34.3z"/>
	<path d="M44.4,38.1l-1-1.9c0,0,0,0,0,0h-0.9c0,0,0,0,0,0v1.8c0,0,0,0.1-0.1,0.1h-0.5c-0.1,0-0.1,0-0.1-0.1V34c0,0,0-0.1,0.1-0.1
		h1.6c0.5,0,0.9,0.1,1.2,0.3c0.3,0.2,0.4,0.5,0.4,0.8c0,0.3-0.1,0.5-0.3,0.7c-0.2,0.2-0.4,0.3-0.7,0.4c0,0,0,0,0,0l1.1,1.9l0,0
		c0,0,0,0-0.1,0h-0.5C44.4,38.2,44.4,38.1,44.4,38.1z M42.4,34.4v1.5c0,0,0,0,0,0h0.9c0.3,0,0.5-0.1,0.7-0.2
		c0.2-0.1,0.3-0.3,0.3-0.6s-0.1-0.4-0.3-0.6c-0.2-0.1-0.4-0.2-0.7-0.2L42.4,34.4C42.4,34.3,42.4,34.3,42.4,34.4z"/>
</g>
</svg>
