<?xml version="1.0" encoding="UTF-8"?>
<svg xmlns="http://www.w3.org/2000/svg" xmlns:xlink="http://www.w3.org/1999/xlink" width="16pt" height="16pt" viewBox="0 0 16 16" version="1.1">
<g id="surface1">
<path style=" stroke:none;fill-rule:nonzero;fill:rgb(31.764706%,31.764706%,31.764706%);fill-opacity:1;" d="M 12.515625 13.078125 C 13.957031 11.636719 14.609375 9.710938 14.480469 7.824219 C 13.722656 7.832031 12.96875 7.835938 12.214844 7.84375 C 12.339844 9.140625 11.914062 10.484375 10.917969 11.480469 C 9.148438 13.246094 6.285156 13.246094 4.519531 11.480469 C 2.753906 9.714844 2.753906 6.851562 4.519531 5.082031 C 6.027344 3.574219 8.332031 3.359375 10.074219 4.425781 C 9.484375 5.011719 8.789062 5.699219 8.789062 5.699219 C 8.289062 6.230469 8.796875 6.585938 9.132812 6.585938 L 13.546875 6.585938 C 13.71875 6.585938 13.851562 6.449219 13.855469 6.28125 L 13.855469 1.902344 C 13.875 1.488281 13.421875 1.105469 12.976562 1.550781 C 12.976562 1.550781 12.226562 2.292969 11.710938 2.804688 C 9.054688 0.867188 5.316406 1.085938 2.921875 3.484375 C 0.269531 6.132812 0.269531 10.429688 2.921875 13.078125 C 5.570312 15.730469 9.867188 15.730469 12.515625 13.078125 Z M 12.515625 13.078125 "/>
</g>
</svg>
