<?xml version="1.0" encoding="utf-8"?>
<!-- Generator: Adobe Illustrator 24.0.1, SVG Export Plug-In . SVG Version: 6.00 Build 0)  -->
<svg version="1.1" id="Layer_1" xmlns="http://www.w3.org/2000/svg" xmlns:xlink="http://www.w3.org/1999/xlink" x="0px" y="0px"
	 viewBox="0 0 8 8" style="enable-background:new 0 0 8 8;" xml:space="preserve">
<style type="text/css">
	.st0{fill:#515151;}
</style>
<path id="Refresh" class="st0" d="M6.31,6.08C7.03,5.36,7.35,4.4,7.29,3.45c-0.38,0-0.76,0.01-1.13,0.01
	c0.06,0.65-0.15,1.32-0.65,1.82c-0.88,0.88-2.32,0.88-3.2,0c-0.88-0.88-0.88-2.31,0-3.2c0.75-0.75,1.91-0.86,2.78-0.33
	c-0.3,0.29-0.64,0.64-0.64,0.64c-0.25,0.27,0,0.44,0.17,0.44h2.21c0.08,0,0.15-0.07,0.15-0.15V0.49c0.01-0.21-0.22-0.4-0.44-0.18
	c0,0-0.37,0.37-0.63,0.63c-1.33-0.97-3.2-0.86-4.39,0.34c-1.33,1.33-1.33,3.47,0,4.8C2.83,7.41,4.98,7.41,6.31,6.08z"/>
</svg>
